<svg xmlns="http://www.w3.org/2000/svg" xmlns:xlink="http://www.w3.org/1999/xlink" width="518" height="168.393" viewBox="0 0 518 168.393">
  <defs>
    <filter id="Path_1197" x="0" y="87" width="243.02" height="81.393" filterUnits="userSpaceOnUse">
      <feOffset dy="10" input="SourceAlpha"/>
      <feGaussianBlur stdDeviation="3" result="blur"/>
      <feFlood flood-opacity="0.161"/>
      <feComposite operator="in" in2="blur"/>
      <feComposite in="SourceGraphic"/>
    </filter>
    <filter id="Path_1198" x="0" y="0" width="305" height="81" filterUnits="userSpaceOnUse">
      <feOffset dy="10" input="SourceAlpha"/>
      <feGaussianBlur stdDeviation="3" result="blur-2"/>
      <feFlood flood-opacity="0.161"/>
      <feComposite operator="in" in2="blur-2"/>
      <feComposite in="SourceGraphic"/>
    </filter>
    <filter id="Path_1199" x="302" y="3" width="216" height="76" filterUnits="userSpaceOnUse">
      <feOffset dy="10" input="SourceAlpha"/>
      <feGaussianBlur stdDeviation="3" result="blur-3"/>
      <feFlood flood-opacity="0.161"/>
      <feComposite operator="in" in2="blur-3"/>
      <feComposite in="SourceGraphic"/>
    </filter>
    <filter id="Path_1197-2" x="242.832" y="86.869" width="184.381" height="81.393" filterUnits="userSpaceOnUse">
      <feOffset dy="10" input="SourceAlpha"/>
      <feGaussianBlur stdDeviation="3" result="blur-4"/>
      <feFlood flood-opacity="0.161"/>
      <feComposite operator="in" in2="blur-4"/>
      <feComposite in="SourceGraphic"/>
    </filter>
  </defs>
  <g id="Group_655" data-name="Group 655" transform="translate(-374 -1747)">
    <g id="Group_649" data-name="Group 649" transform="translate(383.437 1746.948)">
      <g id="Component_15_1" data-name="Component 15 – 1" transform="translate(-0.437 87.052)">
        <g transform="matrix(1, 0, 0, 1, -9, -87)" filter="url(#Path_1197)">
          <path id="Path_1197-3" data-name="Path 1197" d="M31.2,0H193.824a31.2,31.2,0,0,1,0,62.393H31.2A31.2,31.2,0,0,1,31.2,0Z" transform="translate(9 87)" fill="#f4f4f4" opacity="0.487"/>
        </g>
        <text id="Fake_users" data-name="Fake users" transform="translate(19 39)" fill="#8d8d8d" font-size="30" font-family="Muli-Regular, Muli"><tspan x="0" y="0">Fake users</tspan></text>
        <ellipse id="Ellipse_116" data-name="Ellipse 116" cx="31.5" cy="31" rx="31.5" ry="31" transform="translate(104)" fill="none"/>
        <path id="ic_close_24px" d="M28.581,7.375,26.206,5,16.79,14.416,7.375,5,5,7.375l9.416,9.416L5,26.206l2.375,2.375,9.416-9.416,9.416,9.416,2.375-2.375L19.165,16.79Z" transform="translate(176.28 14.319)" fill="#8d8d8d"/>
      </g>
      <g id="Component_15_2" data-name="Component 15 – 2" transform="translate(-0.437 0.052)">
        <g transform="matrix(1, 0, 0, 1, -9, 0)" filter="url(#Path_1198)">
          <path id="Path_1198-2" data-name="Path 1198" d="M31,0H256a31,31,0,0,1,0,62H31A31,31,0,0,1,31,0Z" transform="translate(9)" fill="#f4f4f4" opacity="0.5"/>
        </g>
        <text id="Lewd_words" data-name="Lewd words" transform="translate(27 39)" fill="#8d8d8d" font-size="30" font-family="Muli-Regular, Muli"><tspan x="0" y="0">Lewd words</tspan></text>
        <ellipse id="Ellipse_116-2" data-name="Ellipse 116" cx="31.5" cy="31" rx="31.5" ry="31" transform="translate(224)" fill="#cc0806" opacity="0.5"/>
        <path id="ic_close_24px-2" data-name="ic_close_24px" d="M28.782,7.4,26.387,5l-9.5,9.5L7.4,5,5,7.4l9.5,9.5L5,26.387l2.4,2.4,9.5-9.5,9.5,9.5,2.4-2.4-9.5-9.5Z" transform="translate(237.66 14.319)" fill="#fff"/>
      </g>
    </g>
    <g id="Group_650" data-name="Group 650" transform="translate(685.371 1749.693)">
      <g id="Component_15_4" data-name="Component 15 – 4" transform="translate(-0.371 0.307)">
        <g transform="matrix(1, 0, 0, 1, -311, -3)" filter="url(#Path_1199)">
          <path id="Path_1199-2" data-name="Path 1199" d="M28.5,0h141a28.5,28.5,0,0,1,0,57H28.5a28.5,28.5,0,0,1,0-57Z" transform="translate(311 3)" fill="#f4f4f4" opacity="0.5"/>
        </g>
        <text id="Spams" transform="translate(22 37)" fill="#8d8d8d" font-size="30" font-family="Muli-Regular, Muli"><tspan x="0" y="0">Spams</tspan></text>
        <ellipse id="Ellipse_116-3" data-name="Ellipse 116" cx="31" cy="28.5" rx="31" ry="28.5" transform="translate(136)" fill="#f9f9f9" opacity="0.5"/>
        <path id="ic_close_24px-3" data-name="ic_close_24px" d="M28.466,7.363,26.1,5l-9.37,9.37L7.363,5,5,7.363l9.37,9.37L5,26.1l2.363,2.363,9.37-9.37,9.37,9.37L28.466,26.1l-9.37-9.37Z" transform="translate(149.351 11.582)" fill="#8d8d8d"/>
      </g>
    </g>
    <g id="Component_15_5" data-name="Component 15 – 5" transform="translate(625.832 1833.869)">
      <g transform="matrix(1, 0, 0, 1, -251.83, -86.87)" filter="url(#Path_1197-2)">
        <path id="Path_1197-4" data-name="Path 1197" d="M31.2,0H135.185a31.2,31.2,0,1,1,0,62.393H31.2A31.2,31.2,0,0,1,31.2,0Z" transform="translate(251.83 86.87)" fill="#f4f4f4" opacity="0.487"/>
      </g>
      <text id="Bots" transform="translate(25.168 39.131)" fill="#8d8d8d" font-size="30" font-family="Muli-Regular, Muli"><tspan x="0" y="0">Bots</tspan></text>
      <circle id="Ellipse_116-4" data-name="Ellipse 116" cx="31" cy="31" r="31" transform="translate(104.168 0.131)" fill="none"/>
      <path id="ic_close_24px-4" data-name="ic_close_24px" d="M28.581,7.375,26.206,5,16.79,14.416,7.375,5,5,7.375l9.416,9.416L5,26.206l2.375,2.375,9.416-9.416,9.416,9.416,2.375-2.375L19.165,16.79Z" transform="translate(117.28 14.319)" fill="#8d8d8d"/>
    </g>
  </g>
</svg>
